<svg height="512" viewBox="0 0 64 64" width="512" xmlns="http://www.w3.org/2000/svg"><path d="m34.909 20.461a1 1 0 0 0 1.539-1.118l-1.111-3.42 2.91-2.114a1 1 0 0 0 -.588-1.809h-3.6l-1.108-3.42a1 1 0 0 0 -1.9 0l-1.114 3.42h-3.6a1 1 0 0 0 -.588 1.809l2.91 2.114-1.111 3.42a1 1 0 0 0 1.539 1.118l2.913-2.113zm-4.5-3.427.385-1.184a1 1 0 0 0 -.363-1.118l-1.012-.732h1.245a1 1 0 0 0 .951-.691l.385-1.184.385 1.184a1 1 0 0 0 .951.691h1.245l-1.008.732a1 1 0 0 0 -.363 1.118l.385 1.184-1.007-.734a1 1 0 0 0 -1.176 0z"/><path d="m14.208 20.151a1 1 0 0 0 1.6-1.028l-.914-3.479 3.025-1.944a1 1 0 0 0 -.484-1.84l-3.591-.205-.915-3.478a1 1 0 0 0 -.91-.744 1.017 1.017 0 0 0 -.989.635l-1.3 3.352-3.591-.205a1.019 1.019 0 0 0 -.989.636 1 1 0 0 0 .3 1.136l2.784 2.277-1.3 3.351a1 1 0 0 0 1.472 1.2l3.025-1.944zm-4.308-3.678.451-1.161a1 1 0 0 0 -.3-1.137l-.964-.788 1.244.071a1 1 0 0 0 .988-.635l.451-1.16.318 1.2a1 1 0 0 0 .91.744l1.243.071-1.048.673a1 1 0 0 0 -.426 1.1l.317 1.205-.965-.789a1 1 0 0 0 -1.174-.067z"/><path d="m49.106 15.644-.914 3.479a1 1 0 0 0 1.6 1.028l2.785-2.276 3.023 1.944a1 1 0 0 0 1.472-1.2l-1.3-3.351 2.784-2.277a1 1 0 0 0 .3-1.136 1.009 1.009 0 0 0 -.989-.636l-3.591.205-1.3-3.352a1.018 1.018 0 0 0 -.989-.635 1 1 0 0 0 -.91.744l-.915 3.478-3.591.205a1 1 0 0 0 -.484 1.84zm1.894-2.034a1 1 0 0 0 .91-.744l.318-1.2.451 1.16a1 1 0 0 0 .988.635l1.244-.071-.964.788a1 1 0 0 0 -.3 1.137l.451 1.161-1.05-.676a1 1 0 0 0 -1.174.067l-.965.789.317-1.205a1 1 0 0 0 -.426-1.1l-1.048-.673z"/><path d="m1.973 7.973 1 .056-.973 16.971a1 1 0 0 0 1.3 1.012l7.8-2.427 7.471 3.3a1 1 0 0 0 1.4-.857l.973-17.039c.019 0 .035.011.055.011h2v17a1 1 0 0 0 1.352.937l7.649-2.869 7.648 2.869a1.026 1.026 0 0 0 .352.063 1 1 0 0 0 1-1v-17h2c.02 0 .036-.01.055-.011l.973 17.039a1 1 0 0 0 1.4.857l7.471-3.3 7.8 2.427a1 1 0 0 0 1.301-1.012l-.971-16.971 1-.056a1 1 0 0 0 .942-1.056 1.011 1.011 0 0 0 -1.055-.941l-1 .056-.057-1a.994.994 0 0 0 -.332-.689 1.01 1.01 0 0 0 -.722-.252l-15.975.912a1 1 0 0 0 -.941 1.056l.052.941h-1.941v-1a1 1 0 0 0 -1-1h-16a1 1 0 0 0 -1 1v1h-1.941l.053-.939a1 1 0 0 0 -.941-1.056l-15.971-.912a1.019 1.019 0 0 0 -.722.252.994.994 0 0 0 -.332.689l-.057 1-1-.056a1 1 0 1 0 -.113 2zm56.946-1.827 1 17.529-6.78-2.11a1 1 0 0 0 -.7.04l-6.495 2.868-1-17.528zm-33.919.854h14v17.557l-6.648-2.494a1.015 1.015 0 0 0 -.7 0l-6.652 2.494zm-19.919-.854 13.978.8-1 17.528-6.5-2.868a.993.993 0 0 0 -.4-.085 1.009 1.009 0 0 0 -.3.045l-6.78 2.11z"/><path d="m27 10h1a1 1 0 0 0 0-2h-1a1 1 0 0 0 0 2z"/><path d="m39 55h-6a1 1 0 0 0 0 2h6a1 1 0 0 0 0-2z"/><path d="m43 55h-1a1 1 0 0 0 0 2h1a1 1 0 0 0 0-2z"/><path d="m58 59h-11v-10h1a1 1 0 0 0 1-1v-3a1 1 0 0 0 -1-1h-3v-5c0-.015-.008-.027-.008-.042a3.046 3.046 0 0 0 .543-.422 3 3 0 0 0 0-4.243l-2.828-2.829a3.074 3.074 0 0 0 -4.242 0 3 3 0 0 0 0 4.243l2.828 2.829a2.97 2.97 0 0 0 1.707.838v4.626h-10v-2a.9.9 0 0 0 -.035-.173 3 3 0 0 0 2.035-2.827v-4a3 3 0 0 0 -6 0v4a3 3 0 0 0 2.035 2.827.9.9 0 0 0 -.035.173v2h-10v-4.626a2.97 2.97 0 0 0 1.707-.838l2.828-2.829a3 3 0 0 0 0-4.243 3.074 3.074 0 0 0 -4.242 0l-2.828 2.829a3 3 0 0 0 0 4.243 3.046 3.046 0 0 0 .543.422c0 .015-.008.027-.008.042v5h-3a1 1 0 0 0 -1 1v3a1 1 0 0 0 1 1h1v10h-15a1 1 0 0 0 0 2h56a1 1 0 0 0 0-2zm-18.121-24.707a1 1 0 0 1 0-1.415 1 1 0 0 1 1.414 0l2.828 2.829a1 1 0 0 1 0 1.415 1.025 1.025 0 0 1 -1.414 0zm-8.879.707a1 1 0 0 1 2 0v4a1 1 0 0 1 -2 0zm-11.121.707 2.828-2.828a1 1 0 1 1 1.414 1.414l-2.828 2.828a1.022 1.022 0 0 1 -1.414 0 1 1 0 0 1 0-1.414zm-2.879 10.293h30v1h-30zm2 13v-10h26v10z"/><path d="m62 59h-1a1 1 0 0 0 0 2h1a1 1 0 0 0 0-2z"/></svg>